<svg width="59" height="57" viewBox="0 0 59 57" fill="none" xmlns="http://www.w3.org/2000/svg">
<path d="M11.412 23.512H16.02L18.936 31.972L21.888 23.512H26.46L22.068 35.14L25.308 43.276L32.544 23.44H37.944L27.72 49H23.436L18.936 38.272L14.472 49H10.188L0 23.44H5.328L12.6 43.276L15.768 35.14L11.412 23.512Z" fill="white"/>
<path d="M32.3124 4.512H36.9204L39.8364 12.972L42.7884 4.512H47.3604L42.9684 16.14L46.2084 24.276L53.4444 4.44H58.8444L48.6204 30H44.3364L39.8364 19.272L35.3724 30H31.0884L20.9004 4.44H26.2284L33.5004 24.276L36.6684 16.14L32.3124 4.512Z" fill="white"/>
</svg>
